<svg width="18" height="18" viewBox="0 0 18 18" fill="none" xmlns="http://www.w3.org/2000/svg">
<path d="M13.7379 12.1575L15.7694 14.7287C16.0675 15.0969 16.0088 15.709 15.6467 16.0085C14.9173 16.6633 13.5507 17.5891 12.0867 17.2123C9.8028 16.6941 7.53523 14.2669 5.1436 10.8152C2.84599 7.54195 -0.436503 4.11018 3.19319 0.441027C3.50025 0.135741 3.99536 0.187167 4.24376 0.493952L6.18126 2.88687C6.67805 3.50044 6.67974 4.06258 6.36201 4.47915L5.4035 5.78451C5.09111 6.14544 5.0928 6.70758 5.38554 7.13137L10.0021 13.4553C10.0021 13.4553 10.6479 14.253 11.5974 13.6211L13.0671 12.2002C13.0671 12.2002 13.3794 11.8393 13.7379 12.1575Z" fill="white"/>
</svg>
