<svg width="56" height="56" viewBox="0 0 56 56" fill="none" xmlns="http://www.w3.org/2000/svg">
<path d="M42 22.75H38.5C38.4986 21.358 37.945 20.0235 36.9608 19.0392C35.9765 18.055 34.642 17.5014 33.25 17.5V14C35.5698 14.0028 37.7938 14.9255 39.4341 16.5659C41.0745 18.2062 41.9972 20.4302 42 22.75Z" fill="black"/>
<path d="M49 22.75H45.5C45.4963 19.5022 44.2045 16.3886 41.908 14.092C39.6114 11.7955 36.4978 10.5037 33.25 10.5V7C37.4257 7.00463 41.4291 8.66549 44.3818 11.6182C47.3345 14.5709 48.9954 18.5743 49 22.75Z" fill="black"/>
<path d="M35.583 37.5935L39.503 33.6735C40.0277 33.1487 40.6949 32.7893 41.4219 32.64C42.1489 32.4907 42.9037 32.558 43.5928 32.8335L48.3668 34.7445C49.0704 35.026 49.6736 35.512 50.0984 36.1396C50.5232 36.7671 50.7503 37.5076 50.7503 38.2655V46.9473C50.7515 47.4633 50.6474 47.9741 50.4444 48.4485C50.2413 48.9229 49.9436 49.3508 49.5694 49.7062C49.1953 50.0615 48.7525 50.3367 48.2683 50.515C47.7841 50.6933 47.2685 50.7709 46.7533 50.743C13.2898 48.6605 6.53128 20.3175 5.27653 9.46401C5.21576 8.93341 5.26801 8.39595 5.42985 7.88698C5.59169 7.37802 5.85946 6.90908 6.21553 6.51102C6.5716 6.11297 7.00791 5.7948 7.49576 5.57746C7.98361 5.36012 8.51195 5.24852 9.04603 5.25001H17.5738C18.3316 5.24999 19.0721 5.47704 19.6997 5.90189C20.3273 6.32673 20.8132 6.92988 21.0948 7.63351L23.004 12.4075C23.2796 13.0966 23.3468 13.8514 23.1975 14.5784C23.0482 15.3054 22.6889 15.9725 22.164 16.4973L18.244 20.4173C18.244 20.4173 20.4175 35.6983 35.583 37.5935Z" fill="black"/>
</svg>
