<svg width="32" height="32" viewBox="0 0 32 32" fill="none" xmlns="http://www.w3.org/2000/svg">
<path d="M16.0001 30.3334C8.09342 30.3334 1.66675 23.9067 1.66675 16.0001C1.66675 8.09342 8.09342 1.66675 16.0001 1.66675C23.9067 1.66675 30.3334 8.09342 30.3334 16.0001C30.3334 23.9067 23.9067 30.3334 16.0001 30.3334ZM16.0001 3.66675C9.20008 3.66675 3.66675 9.20008 3.66675 16.0001C3.66675 22.8001 9.20008 28.3334 16.0001 28.3334C22.8001 28.3334 28.3334 22.8001 28.3334 16.0001C28.3334 9.20008 22.8001 3.66675 16.0001 3.66675Z" fill="#3B3D3B"/>
<path d="M14.1069 20.7732C13.8418 20.773 13.5876 20.6675 13.4003 20.4799L9.62694 16.7066C9.44096 16.5184 9.33667 16.2645 9.33667 15.9999C9.33667 15.7353 9.44096 15.4814 9.62694 15.2932C10.0136 14.9066 10.6536 14.9066 11.0403 15.2932L14.1069 18.3599L20.9603 11.5066C21.3469 11.1199 21.9869 11.1199 22.3736 11.5066C22.7603 11.8932 22.7603 12.5332 22.3736 12.9199L14.8136 20.4799C14.6262 20.6675 14.3721 20.773 14.1069 20.7732Z" fill="#1CA346"/>
</svg>
