<svg width="24" height="24" viewBox="0 0 24 24" fill="none" xmlns="http://www.w3.org/2000/svg">
<path d="M12.0001 14.1699C9.87013 14.1699 8.13013 12.4399 8.13013 10.2999C8.13013 8.15994 9.87013 6.43994 12.0001 6.43994C14.1301 6.43994 15.8701 8.16994 15.8701 10.3099C15.8701 12.4499 14.1301 14.1699 12.0001 14.1699ZM12.0001 7.93994C10.7001 7.93994 9.63013 8.99994 9.63013 10.3099C9.63013 11.6199 10.6901 12.6799 12.0001 12.6799C13.3101 12.6799 14.3701 11.6199 14.3701 10.3099C14.3701 8.99994 13.3001 7.93994 12.0001 7.93994V7.93994Z" fill="#1CA346"/>
<path d="M12.0002 22.76C10.4596 22.7571 8.9798 22.1587 7.87018 21.09C4.92018 18.25 1.66018 13.72 2.89018 8.33C4.00018 3.44 8.27018 1.25 12.0002 1.25H12.0102C15.7402 1.25 20.0102 3.44 21.1202 8.34C22.3402 13.73 19.0802 18.25 16.1302 21.09C15.0206 22.1587 13.5408 22.7571 12.0002 22.76ZM12.0002 2.75C9.09018 2.75 5.35018 4.3 4.36018 8.66C3.28018 13.37 6.24018 17.43 8.92018 20C9.74632 20.8031 10.853 21.2523 12.0052 21.2523C13.1573 21.2523 14.264 20.8031 15.0902 20C17.7602 17.43 20.7202 13.37 19.6602 8.66C18.6602 4.3 14.9102 2.75 12.0002 2.75Z" fill="#1CA346"/>
</svg>
