<svg width="22" height="22" viewBox="0 0 22 22" fill="none" xmlns="http://www.w3.org/2000/svg">
<path d="M11 0C4.92525 0 0 4.92525 0 11C0 17.0748 4.92525 22 11 22C17.0748 22 22 17.0748 22 11C22 4.92525 17.0748 0 11 0ZM16.5 11.9167H11.9167V16.5C11.9167 17.0069 11.506 17.4167 11 17.4167C10.494 17.4167 10.0833 17.0069 10.0833 16.5V11.9167H5.5C4.994 11.9167 4.58333 11.5069 4.58333 11C4.58333 10.4931 4.994 10.0833 5.5 10.0833H10.0833V5.5C10.0833 4.99308 10.494 4.58333 11 4.58333C11.506 4.58333 11.9167 4.99308 11.9167 5.5V10.0833H16.5C17.006 10.0833 17.4167 10.4931 17.4167 11C17.4167 11.5069 17.006 11.9167 16.5 11.9167Z" fill="white"/>
</svg>
