<svg width="24" height="24" viewBox="0 0 24 24" fill="none" xmlns="http://www.w3.org/2000/svg">
<path d="M12.1598 10.87C12.0598 10.86 11.9398 10.86 11.8298 10.87C10.682 10.831 9.59447 10.3468 8.79746 9.51995C8.00045 8.69307 7.55657 7.58844 7.55983 6.43999C7.55983 3.98999 9.53983 1.99999 11.9998 1.99999C12.5822 1.98948 13.161 2.0938 13.7031 2.30697C14.2452 2.52014 14.74 2.838 15.1593 3.2424C15.5785 3.6468 15.914 4.12982 16.1466 4.66388C16.3792 5.19794 16.5043 5.77258 16.5148 6.35499C16.5253 6.9374 16.421 7.51618 16.2079 8.05828C15.9947 8.60038 15.6768 9.09518 15.2724 9.51444C14.868 9.93369 14.385 10.2692 13.8509 10.5018C13.3169 10.7344 12.7422 10.8595 12.1598 10.87V10.87Z" stroke="#1CA346" stroke-width="1.5" stroke-linecap="round" stroke-linejoin="round"/>
<path d="M7.15997 14.56C4.73997 16.18 4.73997 18.82 7.15997 20.43C9.90997 22.27 14.42 22.27 17.17 20.43C19.59 18.81 19.59 16.17 17.17 14.56C14.43 12.73 9.91997 12.73 7.15997 14.56V14.56Z" stroke="#1CA346" stroke-width="1.5" stroke-linecap="round" stroke-linejoin="round"/>
</svg>
