<svg width="21" height="27" viewBox="0 0 21 27" fill="none" xmlns="http://www.w3.org/2000/svg">
<path d="M17.2865 21.1504H14.1224C14.0114 21.1504 13.8449 21.2099 13.7894 21.329C13.6783 21.448 13.6228 21.5671 13.6228 21.6862V24.9606H1.52153V2.03942H17.2865V11.0293L18.2857 9.83859V1.50359C18.2857 1.38452 18.2302 1.20592 18.1192 1.14638C18.0082 1.02731 17.8971 0.967773 17.7306 0.967773H1.02193C0.910913 0.967773 0.744381 1.02731 0.68887 1.14638C0.577849 1.20592 0.522339 1.38452 0.522339 1.50359V25.4965C0.522339 25.6155 0.577849 25.7941 0.68887 25.8537C0.799892 25.9728 0.910913 26.0323 1.02193 26.0323H14.733C14.8441 26.0323 15.0106 25.9728 15.0661 25.8537L16.6204 24.1867L18.1192 22.5792C18.2302 22.4601 18.2857 22.3411 18.2857 22.222V12.6963L17.2865 13.887V21.1504ZM14.5665 24.9606V22.222H17.231L14.5665 24.9606Z" fill="white"/>
<path d="M15.3993 7.45703H3.35352V9.0645H15.3993V7.45703Z" fill="white"/>
<path d="M15.3993 4.77734H3.35352V6.38481H15.3993V4.77734Z" fill="white"/>
<path d="M15.3993 10.0767H3.35352V11.6841H15.3993V10.0767Z" fill="white"/>
<path d="M3.35352 12.6958V14.3033H14.5666L15.3993 13.2912V12.6958H3.35352Z" fill="white"/>
<path d="M3.35352 15.3159V16.9234H9.40416L9.0711 16.5066L8.62702 15.9708C8.57151 15.9113 8.516 15.7327 8.57151 15.6731C8.62702 15.6136 8.68253 15.5541 8.79355 15.5541H8.84906L11.125 16.1494C11.1805 16.1494 11.236 16.209 11.236 16.209L11.8466 16.9234H12.4017L13.6785 15.3755V15.3159H3.35352Z" fill="white"/>
<path d="M20.8392 9.18349L19.84 8.23092C19.7845 8.17139 19.729 8.17139 19.6735 8.17139C19.618 8.17139 19.5625 8.23092 19.507 8.29046L18.2857 9.77885L17.2865 10.9696L15.3992 13.2319L14.5665 14.244L13.6783 15.3157L12.4016 16.8636L12.124 17.2208L11.8465 16.8636L11.2359 16.1492C11.1804 16.0896 11.1804 16.0896 11.1249 16.0896L8.84893 15.4943H8.79342C8.6824 15.4943 8.62688 15.5538 8.57137 15.6133C8.51586 15.7324 8.51586 15.8515 8.62689 15.911L9.07097 16.4468L9.40403 16.8636L11.5134 19.3046C11.68 19.4832 11.902 19.6022 12.1796 19.6022C12.4571 19.6022 12.6792 19.4832 12.8457 19.245L17.2865 13.8273L18.2857 12.6366L20.8947 9.48117C20.9502 9.42164 20.9502 9.24303 20.8392 9.18349Z" fill="white"/>
</svg>
