<?xml version="1.0" standalone="no"?>
<!DOCTYPE svg PUBLIC "-//W3C//DTD SVG 20010904//EN"
 "http://www.w3.org/TR/2001/REC-SVG-20010904/DTD/svg10.dtd">
<svg version="1.0" xmlns="http://www.w3.org/2000/svg"
 width="512.000000pt" height="512.000000pt" viewBox="0 0 512.000000 512.000000"
 preserveAspectRatio="xMidYMid meet">
<metadata>
Created by potrace 1.16, written by Peter Selinger 2001-2019
</metadata>
<g transform="translate(0.000000,512.000000) scale(0.100000,-0.100000)"
fill="#000000" stroke="none">
<path d="M2390 5090 c0 -28 -3 -30 -37 -30 -21 0 -92 -9 -159 -20 -909 -148
-1661 -769 -1990 -1643 -71 -188 -144 -508 -144 -629 0 -35 -2 -38 -30 -38
l-30 0 0 -170 0 -170 30 0 c28 0 30 -3 30 -37 0 -21 9 -92 20 -159 148 -909
769 -1661 1643 -1990 188 -71 508 -144 630 -144 34 0 37 -2 37 -30 l0 -30 170
0 170 0 0 30 c0 28 3 30 38 30 20 0 91 9 158 20 1083 176 1938 1031 2114 2114
11 67 20 138 20 159 0 34 2 37 30 37 l30 0 0 170 0 170 -30 0 c-28 0 -30 3
-30 38 0 59 -37 268 -69 395 -53 203 -145 429 -251 614 -389 678 -1052 1139
-1814 1263 -67 11 -138 20 -158 20 -35 0 -38 2 -38 30 l0 30 -170 0 -170 0 0
-30z m530 -345 c491 -81 869 -273 1210 -615 171 -170 282 -318 385 -513 120
-227 186 -427 231 -702 26 -156 26 -554 0 -710 -81 -495 -273 -873 -616 -1215
-170 -171 -318 -282 -513 -385 -227 -120 -427 -186 -702 -231 -156 -26 -554
-26 -710 0 -495 81 -873 273 -1215 616 -171 170 -282 318 -385 513 -120 227
-186 427 -231 702 -26 156 -26 554 0 710 81 495 273 873 616 1215 377 378 809
578 1365 634 91 9 474 -3 565 -19z"/>
<path d="M2505 3261 c-16 -10 -258 -248 -537 -527 -339 -340 -512 -521 -522
-545 -14 -33 -13 -39 6 -79 21 -43 94 -100 128 -100 39 0 130 83 515 469 l410
411 53 0 54 0 441 -435 c300 -296 451 -438 473 -445 27 -9 39 -8 71 8 64 33
108 101 97 149 -7 31 -1038 1073 -1086 1099 -37 19 -67 18 -103 -5z"/>
</g>
</svg>
