<svg width="65" height="45" viewBox="0 0 65 45" fill="none" xmlns="http://www.w3.org/2000/svg">
<path d="M54.6 19.6233C55.0164 18.5763 55.25 17.4315 55.25 16.2377C55.25 11.0516 50.8828 6.844 45.5 6.844C43.4992 6.844 41.6305 7.43111 40.0867 8.42919C37.2734 3.73234 32.0227 0.581543 26 0.581543C17.0219 0.581543 9.75 7.58767 9.75 16.2377C9.75 16.5019 9.76016 16.7661 9.77031 17.0303C4.08281 18.9579 0 24.1832 0 30.3282C0 38.1074 6.55078 44.4188 14.625 44.4188H52C59.1805 44.4188 65 38.8119 65 31.8938C65 25.8369 60.5313 20.778 54.6 19.6233ZM39.9547 25.6314H33.3125V36.5907C33.3125 37.4518 32.5813 38.1563 31.6875 38.1563H26.8125C25.9187 38.1563 25.1875 37.4518 25.1875 36.5907V25.6314H18.5453C17.093 25.6314 16.3719 23.9483 17.3977 22.96L28.1023 12.6466C28.732 12.0399 29.768 12.0399 30.3977 12.6466L41.1023 22.96C42.1281 23.9483 41.3969 25.6314 39.9547 25.6314Z" fill="#16ACEC"/>
</svg>
