<svg width="46" height="46" viewBox="0 0 46 46" fill="none" xmlns="http://www.w3.org/2000/svg">
<path d="M30.583 32.5935L34.503 28.6735C35.0277 28.1487 35.6949 27.7893 36.4219 27.64C37.1489 27.4907 37.9037 27.558 38.5928 27.8335L43.3668 29.7445C44.0704 30.026 44.6736 30.512 45.0984 31.1396C45.5232 31.7671 45.7503 32.5076 45.7503 33.2655V41.9473C45.7515 42.4633 45.6474 42.9741 45.4444 43.4485C45.2413 43.9229 44.9436 44.3508 44.5694 44.7062C44.1953 45.0615 43.7525 45.3367 43.2683 45.515C42.7841 45.6933 42.2685 45.7709 41.7533 45.743C8.28978 43.6605 1.53128 15.3175 0.276527 4.46401C0.215756 3.93341 0.268009 3.39595 0.429851 2.88698C0.591693 2.37802 0.859456 1.90908 1.21553 1.51102C1.5716 1.11297 2.00791 0.794801 2.49576 0.577459C2.98361 0.360117 3.51195 0.248522 4.04603 0.250015H12.5738C13.3316 0.24999 14.0721 0.477045 14.6997 0.901889C15.3273 1.32673 15.8132 1.92988 16.0948 2.63351L18.004 7.40752C18.2796 8.09662 18.3468 8.85143 18.1975 9.5784C18.0482 10.3054 17.6889 10.9725 17.164 11.4973L13.244 15.4173C13.244 15.4173 15.4175 30.6983 30.583 32.5935Z" fill="black"/>
</svg>
