<?xml version="1.0" standalone="no"?>
<!DOCTYPE svg PUBLIC "-//W3C//DTD SVG 20010904//EN"
 "http://www.w3.org/TR/2001/REC-SVG-20010904/DTD/svg10.dtd">
<svg version="1.0" xmlns="http://www.w3.org/2000/svg"
 width="512.000000pt" height="512.000000pt" viewBox="0 0 512.000000 512.000000"
 preserveAspectRatio="xMidYMid meet">
<metadata>
Created by potrace 1.16, written by Peter Selinger 2001-2019
</metadata>
<g transform="translate(0.000000,512.000000) scale(0.100000,-0.100000)"
fill="#000000" stroke="none">
<path d="M2430 4814 c-36 -8 -111 -37 -166 -64 -118 -57 -236 -159 -302 -262
-79 -123 -1829 -3164 -1856 -3226 -15 -34 -32 -89 -38 -122 -11 -57 -13 -60
-40 -60 l-28 0 0 -70 c0 -70 0 -70 28 -70 26 0 29 -4 41 -62 26 -126 118 -286
217 -378 132 -123 281 -191 464 -210 128 -13 3492 -13 3620 0 183 19 332 87
464 210 99 92 191 252 217 378 12 58 15 62 41 62 28 0 28 0 28 70 l0 70 -28 0
c-27 0 -29 3 -40 60 -6 33 -23 88 -38 122 -27 62 -1777 3103 -1856 3226 -67
103 -184 205 -302 262 -156 76 -282 95 -426 64z m313 -214 c85 -26 179 -90
227 -154 53 -70 1828 -3146 1859 -3221 34 -82 42 -262 16 -368 -30 -124 -104
-225 -216 -293 -113 -68 18 -64 -2101 -62 l-1913 3 -58 23 c-117 48 -221 152
-269 270 -21 51 -23 73 -23 217 0 149 2 164 25 216 14 30 432 762 930 1625
989 1714 946 1646 1078 1713 84 42 117 49 258 50 96 1 136 -3 187 -19z"/>
<path d="M2504 3716 c-59 -27 -119 -94 -137 -150 -9 -31 -12 -212 -12 -731 l0
-690 23 -50 c38 -83 115 -145 181 -147 38 -1 103 35 141 78 69 79 65 35 65
809 0 567 -3 707 -14 739 -24 68 -99 136 -176 160 -12 3 -41 -4 -71 -18z"/>
<path d="M2492 1494 c-57 -28 -103 -81 -123 -141 -9 -28 -8 -42 5 -78 21 -54
87 -120 143 -141 40 -16 46 -16 87 0 85 32 166 143 151 204 -12 50 -55 111
-101 142 -63 44 -98 47 -162 14z"/>
</g>
</svg>
